<?xml version="1.0" encoding="UTF-8" standalone="no"?>
<!-- Created with Inkscape (http://www.inkscape.org/) -->
<svg
   xmlns:dc="http://purl.org/dc/elements/1.1/"
   xmlns:cc="http://creativecommons.org/ns#"
   xmlns:rdf="http://www.w3.org/1999/02/22-rdf-syntax-ns#"
   xmlns:svg="http://www.w3.org/2000/svg"
   xmlns="http://www.w3.org/2000/svg"
   xmlns:sodipodi="http://sodipodi.sourceforge.net/DTD/sodipodi-0.dtd"
   xmlns:inkscape="http://www.inkscape.org/namespaces/inkscape"
   version="1.0"
   width="500"
   height="300"
   id="svg2"
   sodipodi:version="0.32"
   inkscape:version="0.45+0.46pre3+devel"
   sodipodi:docname="Wettbewerbsstrategien_Michael_E._Porter.svg"
   inkscape:output_extension="org.inkscape.output.svg.inkscape">
  <metadata
     id="metadata2507">
    <rdf:RDF>
      <cc:Work
         rdf:about="">
        <dc:format>image/svg+xml</dc:format>
        <dc:type
           rdf:resource="http://purl.org/dc/dcmitype/StillImage" />
      </cc:Work>
    </rdf:RDF>
  </metadata>
  <sodipodi:namedview
     inkscape:window-height="480"
     inkscape:window-width="640"
     inkscape:pageshadow="2"
     inkscape:pageopacity="0.0"
     guidetolerance="10.0"
     gridtolerance="10.0"
     objecttolerance="10.0"
     borderopacity="1.0"
     bordercolor="#666666"
     pagecolor="#ffffff"
     id="base"
     showgrid="false"
     inkscape:zoom="2.99"
     inkscape:cx="250"
     inkscape:cy="150"
     inkscape:current-layer="svg2" />
  <defs
     id="defs4">
    <inkscape:perspective
       sodipodi:type="inkscape:persp3d"
       inkscape:vp_x="0 : 150 : 1"
       inkscape:vp_y="0 : 1000 : 0"
       inkscape:vp_z="500 : 150 : 1"
       inkscape:persp3d-origin="250 : 100 : 1"
       id="perspective2509" />
    <marker
       refX="0"
       refY="0"
       orient="auto"
       style="overflow:visible"
       id="Arrow1Lstart">
      <path
         d="M 0,0 L 5,-5 L -12.5,0 L 5,5 L 0,0 z "
         transform="matrix(0.8,0,0,0.8,10,0)"
         style="fill-rule:evenodd;stroke:#000000;stroke-width:1pt;marker-start:none"
         id="path4175" />
    </marker>
    <marker
       refX="0"
       refY="0"
       orient="auto"
       style="overflow:visible"
       id="Arrow1Lend">
      <path
         d="M 0,0 L 5,-5 L -12.5,0 L 5,5 L 0,0 z "
         transform="matrix(-0.8,0,0,-0.8,-10,0)"
         style="fill-rule:evenodd;stroke:#000000;stroke-width:1pt;marker-start:none"
         id="path4178" />
    </marker>
  </defs>
  <rect
     id="rect2186"
     style="fill:#ffffff;fill-opacity:1;stroke:#000000;stroke-width:2.0999999;stroke-linecap:round;stroke-linejoin:round;stroke-miterlimit:4;stroke-dasharray:none;stroke-dashoffset:0;stroke-opacity:1"
     y="54.745609"
     x="49.317459"
     ry="0.99999994"
     rx="0.89999992"
     height="228.59309"
     width="427.86227" />
  <path
     id="path3159"
     style="fill:none;fill-rule:evenodd;stroke:#000000;stroke-width:1px;stroke-linecap:butt;stroke-linejoin:miter;stroke-opacity:1"
     d="M 264.5815,55.412066 C 264.5815,282.67224 264.5815,282.67224 264.5815,282.67224" />
  <path
     id="path3161"
     style="fill:none;fill-rule:evenodd;stroke:#000000;stroke-width:1px;stroke-linecap:butt;stroke-linejoin:miter;stroke-opacity:1"
     d="M 49.317458,169.37538 C 476.51328,169.37538 476.51328,169.37538 476.51328,169.37538" />
  <path
     id="path3163"
     style="fill:#ffa07a;fill-opacity:1;stroke:#000000;stroke-width:2.0999999;stroke-linecap:round;stroke-linejoin:round;stroke-miterlimit:4;stroke-dasharray:none;stroke-dashoffset:0;stroke-opacity:1"
     d="M 327.22801,170.04184 C 327.22801,200.22369 299.18022,224.69092 264.58151,224.69092 C 229.9828,224.69092 201.93501,200.22369 201.93501,170.04184 C 201.93501,139.85999 229.9828,115.39276 264.58151,115.39276 C 299.18022,115.39276 327.22801,139.85999 327.22801,170.04184 L 327.22801,170.04184 z" />
  <text
     xml:space="preserve"
     id="text3165"
     style="font-size:10px;font-style:normal;font-weight:normal;fill:#000000;fill-opacity:1;stroke:none;stroke-width:1px;stroke-linecap:butt;stroke-linejoin:miter;stroke-opacity:1;font-family:Bitstream Vera Sans"
     y="82.115234"
     x="326.44266"><tspan
       id="tspan3167"
       style="font-size:13px;font-weight:bold"
       y="82.115234"
       x="326.44266">Strategie der </tspan><tspan
       id="tspan3171"
       style="font-size:13px;font-weight:bold"
       y="98.365234"
       x="326.44266">aggressiven</tspan><tspan
       id="tspan3169"
       style="font-size:13px;font-weight:bold"
       y="114.61523"
       x="326.44266">Kostenführerschaft</tspan></text>
  <text
     xml:space="preserve"
     id="text3181"
     style="font-size:10px;font-style:normal;font-weight:normal;fill:#000000;fill-opacity:1;stroke:none;stroke-width:1px;stroke-linecap:butt;stroke-linejoin:miter;stroke-opacity:1;font-family:Bitstream Vera Sans"
     y="82.115234"
     x="68.44371"><tspan
       id="tspan3183"
       style="font-size:13px;font-weight:bold"
       y="82.115234"
       x="68.44371">Strategie der </tspan><tspan
       id="tspan3185"
       style="font-size:13px;font-weight:bold"
       y="98.365234"
       x="68.44371">Qualitätsführerschaft</tspan></text>
  <text
     xml:space="preserve"
     id="text3187"
     style="font-size:10px;font-style:normal;font-weight:normal;fill:#000000;fill-opacity:1;stroke:none;stroke-width:1px;stroke-linecap:butt;stroke-linejoin:miter;stroke-opacity:1;font-family:Bitstream Vera Sans"
     y="239.52585"
     x="68.211784"><tspan
       id="tspan3189"
       style="font-size:13px;font-weight:bold"
       y="239.52585"
       x="68.211784">Strategie der selektiven</tspan><tspan
       id="tspan3191"
       style="font-size:13px;font-weight:bold"
       y="255.77585"
       x="68.211784">Qualitätsführerschaft</tspan></text>
  <text
     xml:space="preserve"
     id="text3193"
     style="font-size:10px;font-style:normal;font-weight:normal;fill:#000000;fill-opacity:1;stroke:none;stroke-width:1px;stroke-linecap:butt;stroke-linejoin:miter;stroke-opacity:1;font-family:Bitstream Vera Sans"
     y="239.95021"
     x="323.81332"><tspan
       id="tspan3195"
       style="font-size:13px;font-weight:bold"
       y="239.95021"
       x="323.81332">Strategie der </tspan><tspan
       id="tspan3199"
       style="font-size:13px;font-weight:bold"
       y="256.2002"
       x="323.81332">selektiven</tspan><tspan
       id="tspan3197"
       style="font-size:13px;font-weight:bold"
       y="272.4502"
       x="323.81332">Kostenführerschaft</tspan></text>
  <g
     id="g2553">
    <path
       style="fill:#000000;fill-opacity:1;fill-rule:evenodd;stroke:none;stroke-width:1px;stroke-linecap:butt;stroke-linejoin:miter;stroke-opacity:1"
       d="M 49.8125,36.90625 L 49.8125,37.90625 C 263.41041,37.906249 370.22552,37.90625 423.625,37.90625 C 450.32474,37.90625 463.66882,37.90625 470.34375,37.90625 C 473.68122,37.90625 475.35313,37.90625 476.1875,37.90625 C 476.60468,37.90625 476.80195,37.90625 476.90625,37.90625 C 476.9584,37.90625 476.98696,37.90625 477,37.90625 L 477,36.90625 C 477,36.90625 477.00832,36.906248 49.8125,36.90625 z"
       id="path3201" />
    <path
       id="path2559"
       style="fill-rule:evenodd;stroke:#000000;stroke-width:0.8pt;marker-start:none"
       d="M 59.817458,37.42108 L 63.817458,33.42108 L 49.817458,37.42108 L 63.817458,41.42108 L 59.817458,37.42108 z" />
    <path
       id="path2561"
       style="fill-rule:evenodd;stroke:#000000;stroke-width:0.8pt;marker-start:none"
       d="M 467.01328,37.42108 L 463.01328,41.42108 L 477.01328,37.42108 L 463.01328,33.42108 L 467.01328,37.42108 z" />
  </g>
  <g
     id="g2543">
    <path
       style="fill:#000000;fill-opacity:1;fill-rule:evenodd;stroke:none;stroke-width:1px;stroke-linecap:butt;stroke-linejoin:miter;stroke-opacity:1"
       d="M 20.8125,54.75 L 20.8125,282.6875 L 21.8125,282.6875 L 21.8125,54.75 L 20.8125,54.75 z"
       id="path4372" />
    <path
       id="path2549"
       style="fill-rule:evenodd;stroke:#000000;stroke-width:0.8pt;marker-start:none"
       d="M 21.326468,64.74561 L 25.326468,68.74561 L 21.326468,54.74561 L 17.326468,68.74561 L 21.326468,64.74561 z" />
    <path
       id="path2551"
       style="fill-rule:evenodd;stroke:#000000;stroke-width:0.8pt;marker-start:none"
       d="M 21.326468,272.67224 L 17.326468,268.67224 L 21.326468,282.67224 L 25.326468,268.67224 L 21.326468,272.67224 z" />
  </g>
  <text
     xml:space="preserve"
     id="text6312"
     style="font-size:10px;font-style:normal;font-weight:normal;fill:#000000;fill-opacity:1;stroke:none;stroke-width:1px;stroke-linecap:butt;stroke-linejoin:miter;stroke-opacity:1;font-family:Bitstream Vera Sans"
     y="27.42429"
     x="49.317459"><tspan
       id="tspan6314"
       style="font-size:12px"
       y="27.42429"
       x="49.317459">Leistungsvorteile</tspan></text>
  <text
     xml:space="preserve"
     id="text6318"
     style="font-size:10px;font-style:normal;font-weight:normal;fill:#000000;fill-opacity:1;stroke:none;stroke-width:1px;stroke-linecap:butt;stroke-linejoin:miter;stroke-opacity:1;font-family:Bitstream Vera Sans"
     y="27.254368"
     x="390.45663"><tspan
       id="tspan6320"
       style="font-size:12px"
       y="27.254368"
       x="390.45663">Kostenvorteile</tspan></text>
  <text
     xml:space="preserve"
     id="text6322"
     style="font-size:10px;font-style:normal;font-weight:normal;fill:#000000;fill-opacity:1;stroke:none;stroke-width:1px;stroke-linecap:butt;stroke-linejoin:miter;stroke-opacity:1;font-family:Bitstream Vera Sans"
     transform="matrix(0,-1,1,0,0,0)"
     y="37.32132"
     x="-282.67224"><tspan
       id="tspan6324"
       style="font-size:10px"
       y="37.32132"
       x="-282.67224">Teilmarktabdeckung</tspan></text>
  <text
     xml:space="preserve"
     id="text6326"
     style="font-size:10px;font-style:normal;font-weight:normal;fill:#000000;fill-opacity:1;stroke:none;stroke-width:1px;stroke-linecap:butt;stroke-linejoin:miter;stroke-opacity:1;font-family:Bitstream Vera Sans"
     transform="matrix(0,-1,1,0,0,0)"
     y="13.329043"
     x="-187.56787"><tspan
       id="tspan6328"
       style="font-size:10px"
       y="13.329043"
       x="-187.56787">Gesammtmarktabdeckung</tspan></text>
  <g
     id="g2563">
    <path
       style="fill:#000000;fill-opacity:1;fill-rule:evenodd;stroke:none;stroke-width:1px;stroke-linecap:butt;stroke-linejoin:miter;stroke-opacity:1"
       d="M 189.53125,126.96875 L 189.03125,127.84375 L 262.1875,170.0625 L 262.25,170.125 L 262.3125,170.125 L 263.78125,170.53125 L 264.03125,169.5625 L 262.59375,169.15625 L 262.5625,169.15625 L 189.53125,126.96875 z"
       id="path6354" />
    <path
       id="path2569"
       style="fill-rule:evenodd;stroke:#000000;stroke-width:0.8pt;marker-start:none"
       d="M 197.92871,132.40363 L 203.39282,130.93953 L 189.26846,127.40363 L 199.39282,137.86773 L 197.92871,132.40363 z" />
  </g>
  <g
     id="g2587">
    <path
       style="fill:#000000;fill-opacity:1;fill-rule:evenodd;stroke:none;stroke-width:1px;stroke-linecap:butt;stroke-linejoin:miter;stroke-opacity:1"
       d="M 263.0625,170.1875 L 262.09375,171.1875 L 261.96875,171.28125 L 188.90625,213.4375 L 189.40625,214.3125 L 262.59375,172.0625 L 262.625,172.03125 L 262.6875,171.96875 L 263.78125,170.90625 L 263.0625,170.1875 z"
       id="path7325" />
    <path
       id="path2593"
       style="fill-rule:evenodd;stroke:#000000;stroke-width:0.8pt;marker-start:none"
       d="M 197.82625,208.86857 L 199.29036,203.40447 L 189.166,213.86857 L 203.29036,210.33267 L 197.82625,208.86857 z" />
  </g>
  <g
     id="g2571">
    <path
       style="fill:#000000;fill-opacity:1;fill-rule:evenodd;stroke:none;stroke-width:1px;stroke-linecap:butt;stroke-linejoin:miter;stroke-opacity:1"
       d="M 337.90625,126.28125 L 264.75,168.53125 L 264.6875,168.5625 L 264.65625,168.59375 L 263.5625,169.6875 L 264.28125,170.40625 L 265.3125,169.34375 L 265.34375,169.3125 L 338.40625,127.15625 L 337.90625,126.28125 z"
       id="path7327" />
    <path
       id="path2577"
       style="fill-rule:evenodd;stroke:#000000;stroke-width:0.8pt;marker-start:none"
       d="M 329.50385,131.71509 L 328.03974,137.17919 L 338.1641,126.71509 L 324.03974,130.25099 L 329.50385,131.71509 z" />
  </g>
  <g
     id="g2579">
    <path
       style="fill:#000000;fill-opacity:1;fill-rule:evenodd;stroke:none;stroke-width:1px;stroke-linecap:butt;stroke-linejoin:miter;stroke-opacity:1"
       d="M 263.78125,170.0625 L 263.53125,171.03125 L 265,171.4375 L 265.03125,171.4375 L 338.0625,213.625 L 338.5625,212.75 L 265.40625,170.5 L 265.34375,170.46875 L 265.28125,170.46875 L 263.78125,170.0625 z"
       id="path7329" />
    <path
       id="path2585"
       style="fill-rule:evenodd;stroke:#000000;stroke-width:0.8pt;marker-start:none"
       d="M 329.65192,208.18003 L 324.18781,209.64413 L 338.31217,213.18003 L 328.18781,202.71593 L 329.65192,208.18003 z" />
  </g>
</svg>
