<?xml version="1.0" encoding="UTF-8" standalone="no"?>
<svg
   xmlns:dc="http://purl.org/dc/elements/1.1/"
   xmlns:cc="http://creativecommons.org/ns#"
   xmlns:rdf="http://www.w3.org/1999/02/22-rdf-syntax-ns#"
   xmlns:svg="http://www.w3.org/2000/svg"
   xmlns="http://www.w3.org/2000/svg"
   xmlns:sodipodi="http://sodipodi.sourceforge.net/DTD/sodipodi-0.dtd"
   xmlns:inkscape="http://www.inkscape.org/namespaces/inkscape"
   xml:space="preserve"
   id="svg2"
   version="1.1"
   viewBox="0 0 101.07088 39.999999"
   sodipodi:docname="isba_Logo.svg"
   width="101.07088"
   height="40"
   inkscape:version="1.0.2-2 (e86c870879, 2021-01-15)"><sodipodi:namedview
     pagecolor="#ffffff"
     bordercolor="#666666"
     borderopacity="1"
     objecttolerance="10"
     gridtolerance="10"
     guidetolerance="10"
     inkscape:pageopacity="0"
     inkscape:pageshadow="2"
     inkscape:window-width="1767"
     inkscape:window-height="917"
     id="namedview149"
     showgrid="false"
     inkscape:pagecheckerboard="true"
     showborder="true"
     fit-margin-top="0"
     fit-margin-left="0"
     fit-margin-right="0"
     fit-margin-bottom="0"
     inkscape:zoom="0.77842818"
     inkscape:cx="127.31887"
     inkscape:cy="-0.86133016"
     inkscape:window-x="0"
     inkscape:window-y="0"
     inkscape:window-maximized="0"
     inkscape:current-layer="svg2"
     inkscape:document-rotation="0" /><metadata
     id="metadata8"><rdf:RDF><cc:Work
         rdf:about=""><dc:format>image/svg+xml</dc:format><dc:type
           rdf:resource="http://purl.org/dc/dcmitype/StillImage" /><dc:title></dc:title></cc:Work></rdf:RDF></metadata><defs
     id="defs6"><clipPath
       id="clipPath24"
       clipPathUnits="userSpaceOnUse"><path
         id="path22"
         d="M 0,595.28 H 841.89 V 0 H 0 Z" /></clipPath></defs><g
     transform="matrix(0.27499801,0,0,-0.27499801,-60.560062,102.13547)"
     id="g10"><path
       id="path12"
       style="fill:#e95323;fill-opacity:1;fill-rule:nonzero;stroke:none"
       d="m 430.035,291.701 h -2.5 v 56.977 h 2.5 z" /><path
       id="path14"
       style="fill:#25305f;fill-opacity:1;fill-rule:nonzero;stroke:none"
       d="m 220.476,292.372 h 13.66 v 55.804 h -13.66 z" /><path
       id="path16"
       style="fill:#e95323;fill-opacity:1;fill-rule:nonzero;stroke:none"
       d="m 220.22,357.231 h 14.173 v 14.173 H 220.22 Z" /><g
       id="g18"><g
         clip-path="url(#clipPath24)"
         id="g20"><g
           transform="translate(338.7758,319.8794)"
           id="g26"><path
             id="path28"
             style="fill:#25305f;fill-opacity:1;fill-rule:nonzero;stroke:none"
             d="m 0,0 c 0,-4.803 -1.435,-8.856 -4.263,-12.047 -2.777,-3.137 -6.323,-4.727 -10.542,-4.727 -4.479,0 -8.138,1.589 -10.881,4.729 -2.752,3.078 -4.148,7.263 -4.148,12.439 0,5.025 1.415,9.154 4.205,12.27 2.813,3.138 6.512,4.729 10.993,4.729 4.178,0 7.703,-1.645 10.481,-4.891 C -1.398,9.309 0,5.103 0,0 m 52.368,-12.101 c -2.777,-3.101 -6.475,-4.673 -10.994,-4.673 -4.217,0 -7.762,1.627 -10.535,4.832 -2.721,3.192 -4.101,7.399 -4.101,12.505 0,4.768 1.417,8.822 4.207,12.047 2.814,3.174 6.361,4.783 10.542,4.783 4.442,0 8.102,-1.59 10.875,-4.723 2.794,-3.23 4.211,-7.398 4.211,-12.389 0,-4.991 -1.417,-9.159 -4.205,-12.382 m 3.417,40.397 v -5.651 c -4.932,4.759 -10.533,7.17 -16.661,7.17 -7.504,0 -13.838,-2.82 -18.828,-8.381 -3.617,-4.032 -5.932,-8.848 -6.929,-14.365 -1.001,5.486 -3.313,10.283 -6.924,14.307 -4.99,5.6 -11.325,8.439 -18.828,8.439 -6.164,0 -11.783,-2.411 -16.718,-7.17 v 28.88 h -14.66 v -79.033 h 14.66 v 5.081 c 4.861,-4.418 10.405,-6.656 16.493,-6.656 7.615,0 14.006,2.819 18.996,8.381 3.649,4.063 5.982,8.964 6.985,14.616 1,-5.608 3.313,-10.508 6.926,-14.618 5.027,-5.56 11.474,-8.379 19.164,-8.379 5.783,0 11.269,2.248 16.324,6.687 v -5.112 h 13.716 v 55.804 z" /></g><g
           transform="translate(253.5963,310.5605)"
           id="g30"><path
             id="path32"
             style="fill:#25305f;fill-opacity:1;fill-rule:nonzero;stroke:none"
             d="m 0,0 c 0.107,-6.634 5.671,-9.309 11.662,-9.309 4.387,0 9.951,1.712 9.951,7.062 0,4.601 -6.313,6.206 -17.226,8.559 -8.774,1.927 -17.547,5.029 -17.547,14.766 0,14.123 12.197,17.761 24.073,17.761 12.091,0 23.218,-4.066 24.395,-17.654 H 20.864 c -0.428,5.885 -4.922,7.49 -10.379,7.49 -3.423,0 -8.452,-0.642 -8.452,-5.136 0,-5.457 8.56,-6.206 17.226,-8.239 8.881,-2.032 17.547,-5.242 17.547,-15.514 0,-14.551 -12.625,-19.259 -25.251,-19.259 -12.839,0 -25.357,4.815 -25.999,19.473 z" /></g><path
           id="path34"
           style="fill:#25305f;fill-opacity:1;fill-rule:nonzero;stroke:none"
           d="m 449.432,349.938 h 1.805 v -13.564 h -1.805 z" /><g
           transform="translate(454.2006,346.1963)"
           id="g36"><path
             id="path38"
             style="fill:#25305f;fill-opacity:1;fill-rule:nonzero;stroke:none"
             d="m 0,0 h 1.52 v -1.558 h 0.038 c 0.684,1.216 1.786,1.786 3.191,1.786 2.584,0 3.382,-1.482 3.382,-3.591 V -9.822 H 6.516 v 6.649 c 0,1.197 -0.76,1.976 -1.995,1.976 -1.956,0 -2.906,-1.311 -2.906,-3.077 V -9.822 H 0 Z" /></g><g
           transform="translate(467.1963,346.1963)"
           id="g40"><path
             id="path42"
             style="fill:#25305f;fill-opacity:1;fill-rule:nonzero;stroke:none"
             d="M 0,0 H 1.957 V -1.425 H 0 V -7.523 C 0,-8.264 0.209,-8.397 1.216,-8.397 H 1.957 V -9.822 H 0.722 c -1.672,0 -2.337,0.342 -2.337,2.147 v 6.25 H -3.286 V 0 h 1.671 V 2.944 H 0 Z" /></g><g
           transform="translate(477.9492,342.2256)"
           id="g44"><path
             id="path46"
             style="fill:#25305f;fill-opacity:1;fill-rule:nonzero;stroke:none"
             d="M 0,0 C -0.076,1.539 -1.235,2.773 -2.831,2.773 -4.521,2.773 -5.528,1.501 -5.642,0 Z m 1.558,-2.735 c -0.437,-2.166 -1.995,-3.344 -4.199,-3.344 -3.134,0 -4.616,2.165 -4.711,5.167 0,2.945 1.938,5.11 4.616,5.11 3.477,0 4.541,-3.248 4.446,-5.623 h -7.352 c -0.057,-1.709 0.912,-3.229 3.058,-3.229 1.33,0 2.261,0.646 2.546,1.919 z" /></g><g
           transform="translate(481.4651,346.1963)"
           id="g48"><path
             id="path50"
             style="fill:#25305f;fill-opacity:1;fill-rule:nonzero;stroke:none"
             d="m 0,0 h 1.52 v -2.071 h 0.038 c 0.779,1.577 1.862,2.356 3.609,2.299 v -1.71 c -2.602,0 -3.552,-1.482 -3.552,-3.971 V -9.822 H 0 Z" /></g><g
           transform="translate(488.3807,346.1963)"
           id="g52"><path
             id="path54"
             style="fill:#25305f;fill-opacity:1;fill-rule:nonzero;stroke:none"
             d="m 0,0 h 1.52 v -1.558 h 0.038 c 0.684,1.216 1.786,1.786 3.191,1.786 2.584,0 3.382,-1.482 3.382,-3.591 V -9.822 H 6.516 v 6.649 c 0,1.197 -0.76,1.976 -1.995,1.976 -1.956,0 -2.906,-1.311 -2.906,-3.077 V -9.822 H 0 Z" /></g><g
           transform="translate(505.2139,341.4468)"
           id="g56"><path
             id="path58"
             style="fill:#25305f;fill-opacity:1;fill-rule:nonzero;stroke:none"
             d="m 0,0 c -0.627,-0.456 -1.843,-0.475 -2.926,-0.665 -1.063,-0.19 -1.975,-0.57 -1.975,-1.767 0,-1.064 0.912,-1.443 1.899,-1.443 2.128,0 3.002,1.33 3.002,2.222 z M 2.622,-5.034 C 2.337,-5.205 1.976,-5.3 1.463,-5.3 c -0.836,0 -1.368,0.456 -1.368,1.52 -0.893,-1.045 -2.09,-1.52 -3.458,-1.52 -1.785,0 -3.248,0.798 -3.248,2.755 0,2.222 1.653,2.697 3.325,3.02 1.785,0.342 3.305,0.228 3.305,1.443 0,1.407 -1.159,1.634 -2.185,1.634 -1.367,0 -2.374,-0.418 -2.45,-1.861 h -1.615 c 0.095,2.432 1.976,3.286 4.16,3.286 1.767,0 3.686,-0.399 3.686,-2.697 v -5.053 c 0,-0.761 0,-1.102 0.513,-1.102 0.133,0 0.285,0.019 0.494,0.095 z" /></g><g
           transform="translate(511.7692,346.1963)"
           id="g60"><path
             id="path62"
             style="fill:#25305f;fill-opacity:1;fill-rule:nonzero;stroke:none"
             d="M 0,0 H 1.957 V -1.425 H 0 V -7.523 C 0,-8.264 0.209,-8.397 1.216,-8.397 H 1.957 V -9.822 H 0.722 c -1.672,0 -2.337,0.342 -2.337,2.147 v 6.25 H -3.286 V 0 h 1.671 V 2.944 H 0 Z" /></g><path
           id="path64"
           style="fill:#25305f;fill-opacity:1;fill-rule:nonzero;stroke:none"
           d="m 515.797,346.196 h 1.615 v -9.822 h -1.615 z m 1.615,1.767 h -1.615 v 1.976 h 1.615 z" /><g
           transform="translate(524.3462,337.5713)"
           id="g66"><path
             id="path68"
             style="fill:#25305f;fill-opacity:1;fill-rule:nonzero;stroke:none"
             d="M 0,0 C 1.691,0 3.059,1.33 3.059,3.705 3.059,6.098 1.691,7.428 0,7.428 -1.691,7.428 -3.058,6.098 -3.058,3.705 -3.058,1.33 -1.691,0 0,0 m 0,8.853 c 3.116,0 4.768,-2.261 4.768,-5.148 0,-2.869 -1.652,-5.13 -4.768,-5.13 -3.115,0 -4.768,2.261 -4.768,5.13 0,2.887 1.653,5.148 4.768,5.148" /></g><g
           transform="translate(531.2057,346.1963)"
           id="g70"><path
             id="path72"
             style="fill:#25305f;fill-opacity:1;fill-rule:nonzero;stroke:none"
             d="m 0,0 h 1.52 v -1.558 h 0.038 c 0.684,1.216 1.786,1.786 3.191,1.786 2.584,0 3.382,-1.482 3.382,-3.591 V -9.822 H 6.516 v 6.649 c 0,1.197 -0.76,1.976 -1.995,1.976 -1.956,0 -2.906,-1.311 -2.906,-3.077 V -9.822 H 0 Z" /></g><g
           transform="translate(548.0387,341.4468)"
           id="g74"><path
             id="path76"
             style="fill:#25305f;fill-opacity:1;fill-rule:nonzero;stroke:none"
             d="m 0,0 c -0.627,-0.456 -1.843,-0.475 -2.926,-0.665 -1.063,-0.19 -1.975,-0.57 -1.975,-1.767 0,-1.064 0.912,-1.443 1.899,-1.443 2.128,0 3.002,1.33 3.002,2.222 z M 2.622,-5.034 C 2.337,-5.205 1.976,-5.3 1.463,-5.3 c -0.836,0 -1.368,0.456 -1.368,1.52 -0.893,-1.045 -2.09,-1.52 -3.458,-1.52 -1.785,0 -3.248,0.798 -3.248,2.755 0,2.222 1.653,2.697 3.325,3.02 1.785,0.342 3.305,0.228 3.305,1.443 0,1.407 -1.159,1.634 -2.185,1.634 -1.367,0 -2.374,-0.418 -2.45,-1.861 h -1.615 c 0.095,2.432 1.976,3.286 4.16,3.286 1.767,0 3.686,-0.399 3.686,-2.697 v -5.053 c 0,-0.761 0,-1.102 0.513,-1.102 0.133,0 0.285,0.019 0.494,0.095 z" /></g><path
           id="path78"
           style="fill:#25305f;fill-opacity:1;fill-rule:nonzero;stroke:none"
           d="m 552.447,349.938 h 1.615 v -13.564 h -1.615 z" /><g
           transform="translate(563.58,342.2256)"
           id="g80"><path
             id="path82"
             style="fill:#25305f;fill-opacity:1;fill-rule:nonzero;stroke:none"
             d="M 0,0 C -0.076,1.539 -1.235,2.773 -2.831,2.773 -4.521,2.773 -5.528,1.501 -5.642,0 Z m 1.558,-2.735 c -0.437,-2.166 -1.995,-3.344 -4.199,-3.344 -3.134,0 -4.616,2.165 -4.711,5.167 0,2.945 1.938,5.11 4.616,5.11 3.477,0 4.541,-3.248 4.446,-5.623 h -7.352 c -0.057,-1.709 0.912,-3.229 3.058,-3.229 1.33,0 2.261,0.646 2.546,1.919 z" /></g><g
           transform="translate(457.2017,323.9683)"
           id="g84"><path
             id="path86"
             style="fill:#25305f;fill-opacity:1;fill-rule:nonzero;stroke:none"
             d="m 0,0 c -0.209,1.937 -1.501,2.773 -3.363,2.773 -1.519,0 -3.039,-0.55 -3.039,-2.317 0,-1.672 2.166,-1.919 4.35,-2.413 2.166,-0.494 4.332,-1.253 4.332,-3.913 0,-2.888 -2.831,-4.047 -5.301,-4.047 -3.039,0 -5.604,1.482 -5.604,4.788 h 1.71 c 0,-2.28 1.9,-3.268 3.951,-3.268 1.634,0 3.439,0.513 3.439,2.47 0,1.862 -2.166,2.184 -4.331,2.659 -2.166,0.475 -4.351,1.102 -4.351,3.591 0,2.754 2.451,3.97 4.921,3.97 2.773,0 4.882,-1.311 4.996,-4.293 z" /></g><g
           transform="translate(463.8334,324.1963)"
           id="g88"><path
             id="path90"
             style="fill:#25305f;fill-opacity:1;fill-rule:nonzero;stroke:none"
             d="M 0,0 H 1.957 V -1.425 H 0 V -7.523 C 0,-8.264 0.209,-8.397 1.216,-8.397 H 1.957 V -9.822 H 0.722 c -1.672,0 -2.337,0.342 -2.337,2.147 v 6.25 H -3.286 V 0 h 1.671 V 2.944 H 0 Z" /></g><g
           transform="translate(475.8972,314.3745)"
           id="g92"><path
             id="path94"
             style="fill:#25305f;fill-opacity:1;fill-rule:nonzero;stroke:none"
             d="m 0,0 h -1.52 v 1.558 h -0.038 c -0.684,-1.216 -1.786,-1.786 -3.191,-1.786 -2.584,0 -3.382,1.482 -3.382,3.59 v 6.46 h 1.615 v -6.65 c 0,-1.196 0.76,-1.975 1.995,-1.975 1.956,0 2.906,1.311 2.906,3.077 V 9.822 H 0 Z" /></g><g
           transform="translate(482.7378,315.5713)"
           id="g96"><path
             id="path98"
             style="fill:#25305f;fill-opacity:1;fill-rule:nonzero;stroke:none"
             d="m 0,0 c 2.166,0 3.001,1.862 3.001,3.705 0,1.937 -0.873,3.723 -3.096,3.723 -2.204,0 -2.945,-1.881 -2.945,-3.8 C -3.04,1.786 -2.09,0 0,0 M 4.559,-1.197 H 2.945 v 1.33 H 2.906 C 2.375,-0.95 1.121,-1.425 -0.228,-1.425 c -3.021,0 -4.521,2.394 -4.521,5.168 0,2.773 1.481,5.11 4.483,5.11 1.007,0 2.451,-0.38 3.172,-1.539 h 0.039 v 5.053 h 1.614 z" /></g><path
           id="path100"
           style="fill:#25305f;fill-opacity:1;fill-rule:nonzero;stroke:none"
           d="m 490.072,324.196 h 1.615 v -9.822 h -1.615 z m 1.615,1.767 h -1.615 v 1.976 h 1.615 z" /><g
           transform="translate(501.2047,320.2256)"
           id="g102"><path
             id="path104"
             style="fill:#25305f;fill-opacity:1;fill-rule:nonzero;stroke:none"
             d="M 0,0 C -0.076,1.539 -1.235,2.773 -2.831,2.773 -4.521,2.773 -5.528,1.501 -5.642,0 Z m 1.558,-2.735 c -0.437,-2.166 -1.995,-3.344 -4.199,-3.344 -3.134,0 -4.616,2.165 -4.711,5.167 0,2.945 1.938,5.11 4.616,5.11 3.477,0 4.541,-3.248 4.446,-5.623 h -7.352 c -0.057,-1.709 0.912,-3.229 3.058,-3.229 1.33,0 2.261,0.646 2.546,1.919 z" /></g><g
           transform="translate(504.7776,324.1963)"
           id="g106"><path
             id="path108"
             style="fill:#25305f;fill-opacity:1;fill-rule:nonzero;stroke:none"
             d="m 0,0 h 1.52 v -1.558 h 0.038 c 0.684,1.216 1.786,1.786 3.191,1.786 2.584,0 3.382,-1.482 3.382,-3.591 V -9.822 H 6.516 v 6.649 c 0,1.197 -0.76,1.976 -1.995,1.976 -1.956,0 -2.906,-1.311 -2.906,-3.077 V -9.822 H 0 Z" /></g><path
           id="path110"
           style="fill:#25305f;fill-opacity:1;fill-rule:nonzero;stroke:none"
           d="m 515.266,320.416 h 5.49 v -1.52 h -5.49 z" /><g
           transform="translate(536.7151,314.3745)"
           id="g112"><path
             id="path114"
             style="fill:#25305f;fill-opacity:1;fill-rule:nonzero;stroke:none"
             d="m 0,0 h -1.52 v 1.558 h -0.038 c -0.684,-1.216 -1.786,-1.786 -3.191,-1.786 -2.584,0 -3.382,1.482 -3.382,3.59 v 6.46 h 1.615 v -6.65 c 0,-1.196 0.76,-1.975 1.995,-1.975 1.956,0 2.906,1.311 2.906,3.077 V 9.822 H 0 Z" /></g><g
           transform="translate(539.3384,324.1963)"
           id="g116"><path
             id="path118"
             style="fill:#25305f;fill-opacity:1;fill-rule:nonzero;stroke:none"
             d="m 0,0 h 1.52 v -1.558 h 0.038 c 0.684,1.216 1.786,1.786 3.191,1.786 2.584,0 3.382,-1.482 3.382,-3.591 V -9.822 H 6.516 v 6.649 c 0,1.197 -0.76,1.976 -1.995,1.976 -1.956,0 -2.906,-1.311 -2.906,-3.077 V -9.822 H 0 Z" /></g><g
           transform="translate(554.3097,315.5713)"
           id="g120"><path
             id="path122"
             style="fill:#25305f;fill-opacity:1;fill-rule:nonzero;stroke:none"
             d="m 0,0 c 2.166,0 3.002,1.862 3.002,3.705 0,1.937 -0.874,3.723 -3.097,3.723 -2.204,0 -2.945,-1.881 -2.945,-3.8 C -3.04,1.786 -2.09,0 0,0 M 4.559,-1.197 H 2.945 v 1.33 H 2.906 C 2.375,-0.95 1.121,-1.425 -0.228,-1.425 c -3.021,0 -4.521,2.394 -4.521,5.168 0,2.773 1.481,5.11 4.483,5.11 1.007,0 2.451,-0.38 3.172,-1.539 h 0.039 v 5.053 h 1.614 z" /></g><g
           transform="translate(451.1605,293.8945)"
           id="g124"><path
             id="path126"
             style="fill:#25305f;fill-opacity:1;fill-rule:nonzero;stroke:none"
             d="m 0,0 h 4.521 c 1.558,0 2.546,0.95 2.546,2.432 0,1.766 -1.425,2.26 -2.945,2.26 H 0 Z m 0,6.212 h 3.609 c 2.052,0 2.888,0.741 2.888,2.165 0,1.881 -1.33,2.147 -2.888,2.147 H 0 Z m -1.805,5.832 h 4.921 c 1.196,0 2.773,0 3.59,-0.494 C 7.599,11.018 8.302,10.049 8.302,8.719 8.302,7.276 7.542,6.193 6.288,5.68 V 5.642 C 7.96,5.3 8.872,4.046 8.872,2.375 8.872,0.38 7.447,-1.52 4.749,-1.52 h -6.554 z" /></g><g
           transform="translate(469.1146,298.2256)"
           id="g128"><path
             id="path130"
             style="fill:#25305f;fill-opacity:1;fill-rule:nonzero;stroke:none"
             d="M 0,0 C -0.076,1.539 -1.235,2.773 -2.831,2.773 -4.521,2.773 -5.528,1.501 -5.642,0 Z m 1.558,-2.735 c -0.437,-2.166 -1.995,-3.344 -4.199,-3.344 -3.134,0 -4.616,2.165 -4.711,5.167 0,2.945 1.938,5.11 4.616,5.11 3.477,0 4.541,-3.248 4.446,-5.623 h -7.352 c -0.057,-1.709 0.912,-3.229 3.058,-3.229 1.33,0 2.261,0.646 2.546,1.919 z" /></g><g
           transform="translate(472.6305,302.1963)"
           id="g132"><path
             id="path134"
             style="fill:#25305f;fill-opacity:1;fill-rule:nonzero;stroke:none"
             d="m 0,0 h 1.52 v -2.071 h 0.038 c 0.779,1.577 1.862,2.356 3.609,2.299 v -1.71 c -2.602,0 -3.552,-1.482 -3.552,-3.971 V -9.822 H 0 Z" /></g><g
           transform="translate(487.3352,292.3745)"
           id="g136"><path
             id="path138"
             style="fill:#25305f;fill-opacity:1;fill-rule:nonzero;stroke:none"
             d="m 0,0 h -1.52 v 1.558 h -0.038 c -0.684,-1.216 -1.786,-1.786 -3.191,-1.786 -2.584,0 -3.382,1.482 -3.382,3.59 v 6.46 h 1.615 v -6.65 c 0,-1.196 0.76,-1.975 1.995,-1.975 1.956,0 2.906,1.311 2.906,3.077 V 9.822 H 0 Z" /></g><g
           transform="translate(490.6233,300.7715)"
           id="g140"><path
             id="path142"
             style="fill:#25305f;fill-opacity:1;fill-rule:nonzero;stroke:none"
             d="M 0,0 H -1.653 V 1.425 H 0 v 1.462 c 0,1.596 0.95,2.432 2.717,2.432 0.304,0 0.741,-0.057 1.044,-0.152 V 3.761 C 3.476,3.856 3.135,3.894 2.85,3.894 2.071,3.894 1.615,3.647 1.615,2.792 V 1.425 H 3.514 V 0 H 1.615 V -8.397 H 0 Z" /></g><g
           transform="translate(496.76,295.4712)"
           id="g144"><path
             id="path146"
             style="fill:#25305f;fill-opacity:1;fill-rule:nonzero;stroke:none"
             d="m 0,0 c 0.057,-1.444 1.311,-1.9 2.641,-1.9 1.006,0 2.374,0.228 2.374,1.463 0,1.254 -1.596,1.463 -3.21,1.824 -1.596,0.361 -3.211,0.892 -3.211,2.773 0,1.976 1.957,2.793 3.667,2.793 2.165,0 3.894,-0.684 4.027,-3.078 H 4.673 C 4.559,5.129 3.457,5.528 2.394,5.528 c -0.969,0 -2.09,-0.266 -2.09,-1.254 0,-1.159 1.71,-1.349 3.21,-1.71 1.615,-0.36 3.211,-0.893 3.211,-2.792 0,-2.337 -2.185,-3.097 -4.179,-3.097 -2.204,0 -4.066,0.893 -4.161,3.325 z" /></g><g
           transform="translate(511.5413,297.4468)"
           id="g148"><path
             id="path150"
             style="fill:#25305f;fill-opacity:1;fill-rule:nonzero;stroke:none"
             d="m 0,0 c -0.627,-0.456 -1.843,-0.475 -2.926,-0.665 -1.063,-0.19 -1.975,-0.57 -1.975,-1.767 0,-1.064 0.912,-1.443 1.899,-1.443 2.128,0 3.002,1.33 3.002,2.222 z M 2.622,-5.034 C 2.337,-5.205 1.976,-5.3 1.463,-5.3 c -0.836,0 -1.368,0.456 -1.368,1.52 -0.893,-1.045 -2.09,-1.52 -3.458,-1.52 -1.785,0 -3.248,0.798 -3.248,2.755 0,2.222 1.653,2.697 3.325,3.02 1.785,0.342 3.305,0.228 3.305,1.443 0,1.407 -1.159,1.634 -2.185,1.634 -1.367,0 -2.374,-0.418 -2.45,-1.861 h -1.615 c 0.095,2.432 1.976,3.286 4.16,3.286 1.767,0 3.686,-0.399 3.686,-2.697 v -5.053 c 0,-0.761 0,-1.102 0.513,-1.102 0.133,0 0.285,0.019 0.494,0.095 z" /></g><g
           transform="translate(515.9498,305.9385)"
           id="g152"><path
             id="path154"
             style="fill:#25305f;fill-opacity:1;fill-rule:nonzero;stroke:none"
             d="m 0,0 h 1.615 v -8.036 l 4.483,4.294 h 2.166 l -3.895,-3.572 4.18,-6.25 H 6.497 L 3.135,-8.435 1.615,-9.84 v -3.724 H 0 Z" /></g><g
           transform="translate(531.985,297.4468)"
           id="g156"><path
             id="path158"
             style="fill:#25305f;fill-opacity:1;fill-rule:nonzero;stroke:none"
             d="m 0,0 c -0.627,-0.456 -1.843,-0.475 -2.926,-0.665 -1.063,-0.19 -1.975,-0.57 -1.975,-1.767 0,-1.064 0.912,-1.443 1.899,-1.443 2.128,0 3.002,1.33 3.002,2.222 z M 2.622,-5.034 C 2.337,-5.205 1.976,-5.3 1.463,-5.3 c -0.836,0 -1.368,0.456 -1.368,1.52 -0.893,-1.045 -2.09,-1.52 -3.458,-1.52 -1.785,0 -3.248,0.798 -3.248,2.755 0,2.222 1.653,2.697 3.325,3.02 1.785,0.342 3.305,0.228 3.305,1.443 0,1.407 -1.159,1.634 -2.185,1.634 -1.367,0 -2.374,-0.418 -2.45,-1.861 h -1.615 c 0.095,2.432 1.976,3.286 4.16,3.286 1.767,0 3.686,-0.399 3.686,-2.697 v -5.053 c 0,-0.761 0,-1.102 0.513,-1.102 0.133,0 0.285,0.019 0.494,0.095 z" /></g><g
           transform="translate(540.7808,293.5713)"
           id="g160"><path
             id="path162"
             style="fill:#25305f;fill-opacity:1;fill-rule:nonzero;stroke:none"
             d="m 0,0 c 2.166,0 3.001,1.862 3.001,3.705 0,1.937 -0.873,3.723 -3.096,3.723 -2.204,0 -2.945,-1.881 -2.945,-3.8 C -3.04,1.786 -2.09,0 0,0 M 4.559,-1.197 H 2.945 v 1.33 H 2.906 C 2.375,-0.95 1.121,-1.425 -0.228,-1.425 c -3.021,0 -4.521,2.394 -4.521,5.168 0,2.773 1.481,5.11 4.483,5.11 1.007,0 2.451,-0.38 3.172,-1.539 h 0.039 v 5.053 h 1.614 z" /></g><g
           transform="translate(554.8401,298.2256)"
           id="g164"><path
             id="path166"
             style="fill:#25305f;fill-opacity:1;fill-rule:nonzero;stroke:none"
             d="M 0,0 C -0.076,1.539 -1.235,2.773 -2.831,2.773 -4.521,2.773 -5.528,1.501 -5.642,0 Z m 1.558,-2.735 c -0.437,-2.166 -1.995,-3.344 -4.199,-3.344 -3.134,0 -4.616,2.165 -4.711,5.167 0,2.945 1.938,5.11 4.616,5.11 3.477,0 4.541,-3.248 4.446,-5.623 h -7.352 c -0.057,-1.709 0.912,-3.229 3.058,-3.229 1.33,0 2.261,0.646 2.546,1.919 z" /></g><g
           transform="translate(558.4128,302.1963)"
           id="g168"><path
             id="path170"
             style="fill:#25305f;fill-opacity:1;fill-rule:nonzero;stroke:none"
             d="m 0,0 h 1.52 v -1.444 h 0.038 c 0.722,1.102 1.823,1.672 3.172,1.672 1.197,0 2.299,-0.475 2.698,-1.672 0.665,1.045 1.824,1.672 3.077,1.672 1.957,0 3.268,-0.817 3.268,-2.85 v -7.2 h -1.615 v 6.44 c 0,1.216 -0.323,2.185 -1.899,2.185 -1.558,0 -2.565,-0.988 -2.565,-2.508 V -9.822 H 6.079 v 6.44 c 0,1.273 -0.399,2.185 -1.843,2.185 -1.918,0 -2.621,-1.767 -2.621,-2.508 V -9.822 H 0 Z" /></g><path
           id="path172"
           style="fill:#25305f;fill-opacity:1;fill-rule:nonzero;stroke:none"
           d="m 574.905,302.196 h 1.615 v -9.822 h -1.615 z m 1.615,1.767 h -1.615 v 1.976 h 1.615 z" /><g
           transform="translate(586.0374,298.2256)"
           id="g174"><path
             id="path176"
             style="fill:#25305f;fill-opacity:1;fill-rule:nonzero;stroke:none"
             d="M 0,0 C -0.076,1.539 -1.235,2.773 -2.831,2.773 -4.521,2.773 -5.528,1.501 -5.642,0 Z m 1.558,-2.735 c -0.437,-2.166 -1.995,-3.344 -4.199,-3.344 -3.134,0 -4.616,2.165 -4.711,5.167 0,2.945 1.938,5.11 4.616,5.11 3.477,0 4.541,-3.248 4.446,-5.623 h -7.352 c -0.057,-1.709 0.912,-3.229 3.058,-3.229 1.33,0 2.261,0.646 2.546,1.919 z" /></g><g
           transform="translate(238.4184,258.6304)"
           id="g178"><path
             id="path180"
             style="fill:#25305f;fill-opacity:1;fill-rule:nonzero;stroke:none"
             d="m 0,0 c 0,-5.516 -3.155,-8.425 -8.609,-8.425 -5.638,0 -8.976,2.604 -8.976,8.425 v 13.971 h 2.91 V 0 c 0,-3.861 2.206,-5.975 6.066,-5.975 3.676,0 5.699,2.114 5.699,5.975 V 13.971 H 0 Z" /></g><g
           transform="translate(244.7355,272.6011)"
           id="g182"><path
             id="path184"
             style="fill:#25305f;fill-opacity:1;fill-rule:nonzero;stroke:none"
             d="m 0,0 h 3.094 l 11.52,-17.739 h 0.061 V 0 h 2.758 V -21.876 H 14.247 L 2.819,-4.32 H 2.757 V -21.876 H 0 Z" /></g><path
           id="path186"
           style="fill:#25305f;fill-opacity:1;fill-rule:nonzero;stroke:none"
           d="m 268.698,272.601 h 2.911 v -21.876 h -2.911 z" /><g
           transform="translate(286.8071,250.7256)"
           id="g188"><path
             id="path190"
             style="fill:#25305f;fill-opacity:1;fill-rule:nonzero;stroke:none"
             d="m 0,0 h -3.308 l -7.721,21.876 h 3.156 L -1.624,2.911 h 0.061 l 6.312,18.965 h 3.033 z" /></g><g
           transform="translate(298.6084,272.6011)"
           id="g192"><path
             id="path194"
             style="fill:#25305f;fill-opacity:1;fill-rule:nonzero;stroke:none"
             d="M 0,0 H 15.104 V -2.451 H 2.91 v -6.955 h 11.367 v -2.451 H 2.91 v -7.567 h 12.286 v -2.452 H 0 Z" /></g><g
           transform="translate(327.993,262.5205)"
           id="g196"><path
             id="path198"
             style="fill:#25305f;fill-opacity:1;fill-rule:nonzero;stroke:none"
             d="m 0,0 c 2.726,0 5.055,0.705 5.055,3.891 0,2.145 -1.165,3.738 -3.89,3.738 H -6.067 V 0 Z M -8.977,10.081 H 1.318 c 4.105,0 6.647,-2.238 6.647,-5.73 0,-2.635 -1.163,-4.81 -3.798,-5.545 V -1.256 C 6.71,-1.746 7.23,-3.615 7.445,-5.76 7.628,-7.904 7.506,-10.294 8.731,-11.795 H 5.484 c -0.827,0.888 -0.368,3.248 -0.797,5.392 -0.306,2.145 -0.826,3.952 -3.646,3.952 h -7.108 v -9.344 h -2.91 z" /></g><g
           transform="translate(354.3472,266.1973)"
           id="g200"><path
             id="path202"
             style="fill:#25305f;fill-opacity:1;fill-rule:nonzero;stroke:none"
             d="m 0,0 c -0.337,3.125 -2.42,4.473 -5.423,4.473 -2.451,0 -4.902,-0.889 -4.902,-3.738 0,-2.696 3.493,-3.094 7.016,-3.89 3.493,-0.797 6.986,-2.023 6.986,-6.312 0,-4.657 -4.565,-6.525 -8.548,-6.525 -4.902,0 -9.039,2.389 -9.039,7.72 h 2.757 c 0,-3.676 3.065,-5.27 6.373,-5.27 2.635,0 5.545,0.828 5.545,3.983 0,3.003 -3.492,3.523 -6.984,4.289 -3.493,0.766 -7.016,1.778 -7.016,5.791 0,4.442 3.952,6.403 7.935,6.403 4.473,0 7.873,-2.114 8.057,-6.924 z" /></g><path
           id="path204"
           style="fill:#25305f;fill-opacity:1;fill-rule:nonzero;stroke:none"
           d="m 363.359,272.601 h 2.911 v -21.876 h -2.911 z" /><g
           transform="translate(377.821,270.1499)"
           id="g206"><path
             id="path208"
             style="fill:#25305f;fill-opacity:1;fill-rule:nonzero;stroke:none"
             d="M 0,0 H -7.292 V 2.451 H 10.202 V 0 H 2.91 V -19.424 H 0 Z" /></g><g
           transform="translate(401.1718,259.6714)"
           id="g210"><path
             id="path212"
             style="fill:#25305f;fill-opacity:1;fill-rule:nonzero;stroke:none"
             d="M 0,0 V -8.946 H -2.91 V 0 l -8.457,12.93 h 3.463 L -1.347,2.512 5.055,12.93 h 3.31 z" /></g><g
           transform="translate(224.5129,230.2178)"
           id="g214"><path
             id="path216"
             style="fill:#25305f;fill-opacity:1;fill-rule:nonzero;stroke:none"
             d="M 0,0 C 1.456,0 2.634,1.145 2.634,3.189 2.634,5.25 1.456,6.395 0,6.395 -1.456,6.395 -2.632,5.25 -2.632,3.189 -2.632,1.145 -1.456,0 0,0 m 0,7.622 c 2.682,0 4.106,-1.947 4.106,-4.433 0,-2.469 -1.424,-4.416 -4.106,-4.416 -2.681,0 -4.104,1.947 -4.104,4.416 0,2.486 1.423,4.433 4.104,4.433" /></g><g
           transform="translate(230.9789,236.4165)"
           id="g218"><path
             id="path220"
             style="fill:#25305f;fill-opacity:1;fill-rule:nonzero;stroke:none"
             d="M 0,0 H -1.423 V 1.227 H 0 V 2.486 C 0,3.86 0.818,4.58 2.339,4.58 2.6,4.58 2.976,4.53 3.238,4.449 V 3.238 C 2.993,3.32 2.699,3.353 2.452,3.353 1.782,3.353 1.389,3.14 1.389,2.404 V 1.227 H 3.025 V 0 H 1.389 V -7.229 H 0 Z" /></g><g
           transform="translate(248.5311,237.3486)"
           id="g222"><path
             id="path224"
             style="fill:#25305f;fill-opacity:1;fill-rule:nonzero;stroke:none"
             d="m 0,0 c -0.326,1.652 -1.652,2.486 -3.27,2.486 -2.782,0 -3.958,-2.29 -3.958,-4.726 0,-2.667 1.176,-4.891 3.974,-4.891 2.045,0 3.222,1.44 3.369,3.369 h 1.553 c -0.293,-2.911 -2.109,-4.677 -5.053,-4.677 -3.631,0 -5.398,2.682 -5.398,6.084 0,3.386 1.931,6.149 5.529,6.149 2.436,0 4.448,-1.308 4.809,-3.794 z" /></g><g
           transform="translate(255.6999,230.2178)"
           id="g226"><path
             id="path228"
             style="fill:#25305f;fill-opacity:1;fill-rule:nonzero;stroke:none"
             d="M 0,0 C 1.456,0 2.634,1.145 2.634,3.189 2.634,5.25 1.456,6.395 0,6.395 -1.456,6.395 -2.632,5.25 -2.632,3.189 -2.632,1.145 -1.456,0 0,0 m 0,7.622 c 2.683,0 4.106,-1.947 4.106,-4.433 0,-2.469 -1.423,-4.416 -4.106,-4.416 -2.681,0 -4.104,1.947 -4.104,4.416 0,2.486 1.423,4.433 4.104,4.433" /></g><g
           transform="translate(265.2397,230.2178)"
           id="g230"><path
             id="path232"
             style="fill:#25305f;fill-opacity:1;fill-rule:nonzero;stroke:none"
             d="M 0,0 C 1.456,0 2.634,1.145 2.634,3.189 2.634,5.25 1.456,6.395 0,6.395 -1.456,6.395 -2.632,5.25 -2.632,3.189 -2.632,1.145 -1.456,0 0,0 m 0,7.622 c 2.683,0 4.106,-1.947 4.106,-4.433 0,-2.469 -1.423,-4.416 -4.106,-4.416 -2.681,0 -4.104,1.947 -4.104,4.416 0,2.486 1.423,4.433 4.104,4.433" /></g><g
           transform="translate(275.1061,236.6128)"
           id="g234"><path
             id="path236"
             style="fill:#25305f;fill-opacity:1;fill-rule:nonzero;stroke:none"
             d="m 0,0 c -1.865,0 -2.584,-1.603 -2.584,-3.189 0,-1.668 0.752,-3.206 2.665,-3.206 1.897,0 2.535,1.619 2.535,3.271 C 2.616,-1.538 1.8,0 0,0 m -3.926,1.03 h 1.391 v -1.144 h 0.033 c 0.457,0.932 1.536,1.341 2.698,1.341 2.6,0 3.893,-2.061 3.893,-4.449 0,-2.388 -1.276,-4.4 -3.86,-4.4 -0.867,0 -2.11,0.327 -2.731,1.325 h -0.033 v -4.367 h -1.391 z" /></g><g
           transform="translate(286.8531,234.2246)"
           id="g238"><path
             id="path240"
             style="fill:#25305f;fill-opacity:1;fill-rule:nonzero;stroke:none"
             d="M 0,0 C -0.065,1.325 -1.063,2.388 -2.438,2.388 -3.893,2.388 -4.76,1.292 -4.857,0 Z m 1.341,-2.354 c -0.376,-1.865 -1.717,-2.879 -3.615,-2.879 -2.698,0 -3.974,1.864 -4.055,4.448 0,2.535 1.668,4.4 3.974,4.4 2.993,0 3.908,-2.797 3.827,-4.842 h -6.329 c -0.049,-1.472 0.785,-2.78 2.632,-2.78 1.146,0 1.947,0.556 2.193,1.653 z" /></g><g
           transform="translate(289.8674,237.6431)"
           id="g242"><path
             id="path244"
             style="fill:#25305f;fill-opacity:1;fill-rule:nonzero;stroke:none"
             d="m 0,0 h 1.308 v -1.783 h 0.033 c 0.67,1.358 1.603,2.028 3.107,1.98 v -1.472 c -2.241,0 -3.059,-1.277 -3.059,-3.419 V -8.456 H 0 Z" /></g><g
           transform="translate(300.7466,233.5547)"
           id="g246"><path
             id="path248"
             style="fill:#25305f;fill-opacity:1;fill-rule:nonzero;stroke:none"
             d="m 0,0 c -0.54,-0.393 -1.587,-0.409 -2.519,-0.573 -0.915,-0.163 -1.7,-0.49 -1.7,-1.521 0,-0.916 0.785,-1.243 1.635,-1.243 1.831,0 2.584,1.145 2.584,1.914 z M 2.257,-4.335 C 2.012,-4.482 1.701,-4.563 1.259,-4.563 c -0.719,0 -1.178,0.392 -1.178,1.308 -0.768,-0.9 -1.798,-1.308 -2.976,-1.308 -1.537,0 -2.797,0.687 -2.797,2.371 0,1.914 1.424,2.322 2.862,2.601 1.538,0.294 2.846,0.195 2.846,1.242 0,1.211 -0.998,1.407 -1.881,1.407 -1.178,0 -2.044,-0.36 -2.109,-1.602 h -1.391 c 0.083,2.093 1.701,2.829 3.582,2.829 1.522,0 3.174,-0.344 3.174,-2.323 v -4.35 c 0,-0.654 0,-0.949 0.441,-0.949 0.114,0 0.245,0.016 0.425,0.082 z" /></g><g
           transform="translate(306.3756,237.6431)"
           id="g250"><path
             id="path252"
             style="fill:#25305f;fill-opacity:1;fill-rule:nonzero;stroke:none"
             d="M 0,0 H 1.685 V -1.227 H 0 v -5.25 C 0,-7.114 0.18,-7.229 1.047,-7.229 H 1.685 V -8.456 H 0.622 c -1.44,0 -2.011,0.295 -2.011,1.849 v 5.38 h -1.44 V 0 h 1.44 V 2.535 H 0 Z" /></g><path
           id="path254"
           style="fill:#25305f;fill-opacity:1;fill-rule:nonzero;stroke:none"
           d="m 309.829,237.643 h 1.391 v -8.456 h -1.391 z m 1.39,1.521 h -1.391 v 1.701 h 1.391 z" /><g
           transform="translate(317.3374,229.1875)"
           id="g256"><path
             id="path258"
             style="fill:#25305f;fill-opacity:1;fill-rule:nonzero;stroke:none"
             d="m 0,0 h -1.488 l -3.14,8.456 h 1.554 l 2.371,-7.05 h 0.033 l 2.306,7.05 h 1.455 z" /></g><g
           transform="translate(327.7277,234.2246)"
           id="g260"><path
             id="path262"
             style="fill:#25305f;fill-opacity:1;fill-rule:nonzero;stroke:none"
             d="M 0,0 C -0.065,1.325 -1.063,2.388 -2.438,2.388 -3.893,2.388 -4.76,1.292 -4.857,0 Z m 1.341,-2.354 c -0.376,-1.865 -1.717,-2.879 -3.615,-2.879 -2.698,0 -3.974,1.864 -4.055,4.448 0,2.535 1.668,4.4 3.974,4.4 2.993,0 3.908,-2.797 3.827,-4.842 h -6.329 c -0.049,-1.472 0.785,-2.78 2.632,-2.78 1.146,0 1.947,0.556 2.193,1.653 z" /></g><g
           transform="translate(335.7144,240.8652)"
           id="g264"><path
             id="path266"
             style="fill:#25305f;fill-opacity:1;fill-rule:nonzero;stroke:none"
             d="M 0,0 H 8.064 V -1.309 H 1.554 V -5.021 H 7.622 V -6.33 H 1.554 v -4.039 h 6.559 v -1.309 H 0 Z" /></g><g
           transform="translate(349.2611,230.2178)"
           id="g268"><path
             id="path270"
             style="fill:#25305f;fill-opacity:1;fill-rule:nonzero;stroke:none"
             d="m 0,0 c 1.865,0 2.585,1.603 2.585,3.189 0,1.668 -0.753,3.206 -2.666,3.206 -1.897,0 -2.535,-1.62 -2.535,-3.271 C -2.616,1.538 -1.798,0 0,0 M 3.926,-1.03 H 2.535 V 0.115 H 2.502 c -0.457,-0.933 -1.537,-1.342 -2.698,-1.342 -2.6,0 -3.892,2.061 -3.892,4.449 0,2.387 1.275,4.4 3.859,4.4 0.867,0 2.11,-0.327 2.731,-1.325 h 0.033 v 4.35 h 1.391 z" /></g><g
           transform="translate(362.4801,229.1875)"
           id="g272"><path
             id="path274"
             style="fill:#25305f;fill-opacity:1;fill-rule:nonzero;stroke:none"
             d="M 0,0 H -1.308 V 1.341 H -1.341 C -1.93,0.294 -2.878,-0.196 -4.088,-0.196 -6.313,-0.196 -7,1.079 -7,2.895 v 5.561 h 1.391 V 2.731 c 0,-1.03 0.654,-1.701 1.717,-1.701 1.685,0 2.503,1.129 2.503,2.65 V 8.456 H 0 Z" /></g><g
           transform="translate(370.4641,234.9282)"
           id="g276"><path
             id="path278"
             style="fill:#25305f;fill-opacity:1;fill-rule:nonzero;stroke:none"
             d="m 0,0 c -0.213,1.063 -0.948,1.685 -2.094,1.685 -2.01,0 -2.632,-1.587 -2.632,-3.305 0,-1.553 0.703,-3.09 2.47,-3.09 1.341,0 2.142,0.784 2.322,2.061 H 1.49 c -0.312,-2.061 -1.604,-3.288 -3.73,-3.288 -2.585,0 -3.958,1.799 -3.958,4.317 0,2.536 1.308,4.532 3.991,4.532 1.913,0 3.45,-0.9 3.646,-2.912 z" /></g><g
           transform="translate(378.8922,233.5547)"
           id="g280"><path
             id="path282"
             style="fill:#25305f;fill-opacity:1;fill-rule:nonzero;stroke:none"
             d="m 0,0 c -0.54,-0.393 -1.587,-0.409 -2.519,-0.573 -0.915,-0.163 -1.7,-0.49 -1.7,-1.521 0,-0.916 0.785,-1.243 1.635,-1.243 1.831,0 2.584,1.145 2.584,1.914 z M 2.257,-4.335 C 2.012,-4.482 1.701,-4.563 1.259,-4.563 c -0.719,0 -1.178,0.392 -1.178,1.308 -0.768,-0.9 -1.798,-1.308 -2.976,-1.308 -1.537,0 -2.796,0.687 -2.796,2.371 0,1.914 1.423,2.322 2.861,2.601 1.538,0.294 2.846,0.195 2.846,1.242 0,1.211 -0.998,1.407 -1.881,1.407 -1.178,0 -2.044,-0.36 -2.109,-1.602 h -1.391 c 0.083,2.093 1.702,2.829 3.582,2.829 1.522,0 3.174,-0.344 3.174,-2.323 v -4.35 c 0,-0.654 0,-0.949 0.441,-0.949 0.114,0 0.245,0.016 0.425,0.082 z" /></g><g
           transform="translate(384.5227,237.6431)"
           id="g284"><path
             id="path286"
             style="fill:#25305f;fill-opacity:1;fill-rule:nonzero;stroke:none"
             d="M 0,0 H 1.685 V -1.227 H 0 v -5.25 C 0,-7.114 0.18,-7.229 1.047,-7.229 H 1.685 V -8.456 H 0.622 c -1.44,0 -2.011,0.295 -2.011,1.849 v 5.38 h -1.44 V 0 h 1.44 V 2.535 H 0 Z" /></g><path
           id="path288"
           style="fill:#25305f;fill-opacity:1;fill-rule:nonzero;stroke:none"
           d="m 387.976,237.643 h 1.391 v -8.456 h -1.391 z m 1.39,1.521 h -1.391 v 1.701 h 1.391 z" /><g
           transform="translate(395.3192,230.2178)"
           id="g290"><path
             id="path292"
             style="fill:#25305f;fill-opacity:1;fill-rule:nonzero;stroke:none"
             d="M 0,0 C 1.456,0 2.634,1.145 2.634,3.189 2.634,5.25 1.456,6.395 0,6.395 -1.456,6.395 -2.632,5.25 -2.632,3.189 -2.632,1.145 -1.456,0 0,0 m 0,7.622 c 2.682,0 4.106,-1.947 4.106,-4.433 0,-2.469 -1.424,-4.416 -4.106,-4.416 -2.681,0 -4.104,1.947 -4.104,4.416 0,2.486 1.423,4.433 4.104,4.433" /></g><g
           transform="translate(401.2124,237.6431)"
           id="g294"><path
             id="path296"
             style="fill:#25305f;fill-opacity:1;fill-rule:nonzero;stroke:none"
             d="M 0,0 H 1.308 V -1.341 H 1.341 C 1.93,-0.294 2.879,0.197 4.089,0.197 6.313,0.197 7,-1.08 7,-2.895 V -8.456 H 5.61 v 5.725 c 0,1.03 -0.654,1.701 -1.717,1.701 -1.684,0 -2.502,-1.129 -2.502,-2.65 V -8.456 H 0 Z" /></g></g></g></g></svg>
